<?xml version="1.0" standalone="no"?><!DOCTYPE svg PUBLIC "-//W3C//DTD SVG 1.1//EN" "http://www.w3.org/Graphics/SVG/1.1/DTD/svg11.dtd"><svg t="1571152595017" class="icon" viewBox="0 0 1024 1024" version="1.1" xmlns="http://www.w3.org/2000/svg" p-id="2546" xmlns:xlink="http://www.w3.org/1999/xlink" width="200" height="200"><defs><style type="text/css"></style></defs><path d="M781.01504 973.568a77.59872 77.59872 0 0 1-31.71328-6.66624 84.224 84.224 0 0 1-44.301653-44.301653 79.714987 79.714987 0 0 1 0-63.423147 86.674773 86.674773 0 0 1 18.5344-26.507947 79.510187 79.510187 0 0 1 26.146133-17.230506 83.995307 83.995307 0 0 1 32.078507-6.32832c11.23328 0 22.381227 2.146987 32.812373 6.32832a77.76256 77.76256 0 0 1 26.507947 17.056426 86.34368 86.34368 0 0 1 18.541226 26.507947 79.633067 79.633067 0 0 1 0 63.389013 86.596267 86.596267 0 0 1-18.541226 26.53184 84.906667 84.906667 0 0 1-26.692267 18.548054 82.251093 82.251093 0 0 1-33.37216 6.096213z m-442.187093-2.02752a80.964267 80.964267 0 0 1-32.80896-6.669653 84.3776 84.3776 0 0 1-44.301654-44.301654 79.742293 79.742293 0 0 1 0-63.423146 86.893227 86.893227 0 0 1 18.5344-26.504534 79.182507 79.182507 0 0 1 26.14272-17.257813 87.412053 87.412053 0 0 1 33.18784-6.301013c11.008-0.03072 21.896533 2.116267 32.07168 6.301013a79.58528 79.58528 0 0 1 26.146134 17.257813 86.28224 86.28224 0 0 1 18.54464 26.330454 79.762773 79.762773 0 0 1 0 63.39584 84.066987 84.066987 0 0 1-44.311894 44.301653 77.851307 77.851307 0 0 1-33.000106 6.69696l-0.2048 0.17408z m521.352533-225.273173H302.86848a47.271253 47.271253 0 0 1-26.89024-6.2976 64.887467 64.887467 0 0 1-18.537813-20.005547 136.628907 136.628907 0 0 1-13.725014-29.8496 285.764267 285.764267 0 0 1-8.526506-32.283307c0-3.894613-2.59072-14.25408-5.9392-30.767786-3.334827-16.4864-7.041707-37.061973-11.677014-60.98944l-15.755946-82.507094-17.053014-90.845866a34062.82752 34062.82752 0 0 0-45.602133-239.151787l-2.594133-13.1584H43.864747a27.36128 27.36128 0 0 1-16.868694-4.631893 53.510827 53.510827 0 0 1-13.540693-14.660267 57.361067 57.361067 0 0 1-7.41376-18.54464 99.812693 99.812693 0 0 1-2.607787-20.384427 30.72 30.72 0 0 1 9.458347-23.384746 32.955733 32.955733 0 0 1 24.098133-8.321707H148.241067a61.2352 61.2352 0 0 1 26.68544 4.631893 41.949867 41.949867 0 0 1 14.656853 11.308374 47.151787 47.151787 0 0 1 7.970133 14.65344c2.102613 6.557013 3.833173 12.219733 5.19168 17.05984 1.11616 4.631893 2.402987 12.219733 3.70688 21.68832 1.303893 9.45152 2.77504 20.749653 4.263254 31.310506 1.491627 10.594987 4.266667 26.53184 6.478506 40.61184l2.051414 13.90592H960.853333c13.339307-0.682667 26.671787 1.46432 39.113387 6.301014a37.092693 37.092693 0 0 1 16.513707 13.366613 28.433067 28.433067 0 0 1 4.072106 16.114347 67.771733 67.771733 0 0 1-2.973013 18.548053c-2.106027 6.2976-6.66624 19.29216-13.714773 38.925653a24152.630613 24152.630613 0 0 0-23.36768 65.45408l-24.4736 70.632107a10821.00736 10821.00736 0 0 1-19.647147 55.610027 109.90592 109.90592 0 0 1-30.040747 51.165866 64.02048 64.02048 0 0 1-41.526613 12.99456H288.211627l19.84512 128.105814h550.628693c32.078507 0 34.860373 13.53728 34.860373 27.245226a51.725653 51.725653 0 0 1-7.601493 28.562774c-3.160747 4.80256-10.758827 7.41376-22.439253 7.41376l-3.324587 0.17408z" p-id="2547"></path></svg>